<svg width="204" height="38" viewBox="0 0 204 38" fill="none" xmlns="http://www.w3.org/2000/svg">
<path d="M9.49432 0.636363L13.7202 28.2642H14.0575L27.4276 0.636363H35.9503L17.3778 37H7.47017L0.953836 0.636363H9.49432ZM48.0153 0.636363L41.9783 37H34.2901L40.3271 0.636363H48.0153ZM54.5716 37H46.3329L64.9231 0.636363H74.8308L81.3294 37H73.0907L68.6696 8.94602H68.3855L54.5716 37ZM56.4537 22.7067H75.9139L74.8841 28.7081H55.4238L56.4537 22.7067ZM90.3226 37.4616C89.1271 37.4616 88.1446 37.0473 87.3752 36.2188C86.6176 35.3902 86.2743 34.384 86.3453 33.2003C86.4282 32.0284 86.9194 31.04 87.8191 30.2351C88.7305 29.4183 89.7781 29.0099 90.9618 29.0099C92.0982 29.0099 93.057 29.4183 93.8382 30.2351C94.6195 31.0518 94.9628 32.0402 94.8681 33.2003C94.8089 33.9815 94.5544 34.6977 94.1046 35.3487C93.6666 35.9879 93.1103 36.5028 92.4355 36.8935C91.7608 37.2723 91.0565 37.4616 90.3226 37.4616ZM112.708 37.5327C109.903 37.5327 107.594 36.9408 105.783 35.7571C103.984 34.5616 102.723 32.9044 102.001 30.7855C101.291 28.6667 101.167 26.2282 101.629 23.4702C102.078 20.6766 103.019 18.2263 104.452 16.1193C105.884 14.0005 107.701 12.3492 109.903 11.1655C112.116 9.96993 114.602 9.37216 117.36 9.37216C119.739 9.37216 121.752 9.80421 123.397 10.6683C125.042 11.5324 126.25 12.7457 127.019 14.3082C127.789 15.8707 128.049 17.7055 127.8 19.8125H120.68C120.692 18.4631 120.343 17.3681 119.633 16.5277C118.923 15.6873 117.881 15.267 116.508 15.267C115.324 15.267 114.235 15.5866 113.241 16.2259C112.258 16.8532 111.424 17.7706 110.737 18.978C110.063 20.1854 109.589 21.6473 109.317 23.3636C109.033 25.1037 109.027 26.5833 109.299 27.8026C109.571 29.0218 110.092 29.951 110.862 30.5902C111.631 31.2294 112.602 31.549 113.773 31.549C114.649 31.549 115.46 31.3714 116.206 31.0163C116.964 30.6612 117.626 30.1463 118.195 29.4716C118.763 28.785 119.201 27.9624 119.509 27.0036H126.646C126.161 29.0987 125.279 30.9335 124.001 32.5078C122.734 34.0821 121.142 35.3132 119.224 36.201C117.307 37.0888 115.135 37.5327 112.708 37.5327ZM142.16 37.5327C139.379 37.5327 137.076 36.9408 135.253 35.7571C133.43 34.5616 132.146 32.9044 131.4 30.7855C130.666 28.6548 130.53 26.175 130.992 23.3459C131.442 20.5523 132.377 18.108 133.797 16.0128C135.218 13.9176 137.023 12.29 139.213 11.13C141.403 9.9581 143.871 9.37216 146.617 9.37216C149.387 9.37216 151.683 9.96993 153.506 11.1655C155.329 12.3492 156.613 14.0064 157.359 16.1371C158.105 18.2678 158.247 20.7476 157.785 23.5767C157.324 26.3584 156.377 28.7969 154.944 30.892C153.512 32.9872 151.707 34.6207 149.529 35.7926C147.351 36.9527 144.895 37.5327 142.16 37.5327ZM142.906 31.6733C144.184 31.6733 145.315 31.3123 146.297 30.5902C147.292 29.8563 148.114 28.862 148.765 27.6072C149.428 26.3407 149.89 24.9084 150.15 23.3104C150.411 21.736 150.429 20.3393 150.204 19.12C149.979 17.889 149.505 16.9183 148.783 16.2081C148.073 15.4979 147.096 15.1428 145.854 15.1428C144.575 15.1428 143.439 15.5097 142.444 16.2436C141.45 16.9657 140.627 17.96 139.976 19.2266C139.325 20.4931 138.87 21.9313 138.609 23.5412C138.361 25.1037 138.343 26.5005 138.556 27.7315C138.769 28.9508 139.237 29.9155 139.959 30.6257C140.681 31.3241 141.663 31.6733 142.906 31.6733ZM160.52 37L165.065 9.72727H172.256L171.475 14.5391H171.777C172.605 12.9411 173.76 11.6804 175.239 10.7571C176.731 9.83381 178.406 9.37216 180.264 9.37216C182.111 9.37216 183.614 9.83973 184.774 10.7749C185.946 11.6982 186.621 12.9529 186.798 14.5391H187.082C187.887 12.9766 189.1 11.7277 190.722 10.7926C192.344 9.84564 194.155 9.37216 196.155 9.37216C198.677 9.37216 200.606 10.183 201.944 11.8047C203.281 13.4264 203.702 15.7109 203.204 18.6584L200.15 37H192.586L195.427 20.1499C195.652 18.6229 195.427 17.4865 194.753 16.7408C194.078 15.9832 193.137 15.6044 191.93 15.6044C190.556 15.6044 189.414 16.0424 188.503 16.9183C187.591 17.7824 187.029 18.9247 186.816 20.3452L183.993 37H176.66L179.536 19.9901C179.737 18.6406 179.518 17.5753 178.879 16.794C178.252 16.0009 177.311 15.6044 176.056 15.6044C175.227 15.6044 174.44 15.8175 173.694 16.2436C172.961 16.6579 172.339 17.2438 171.83 18.0014C171.321 18.7472 170.99 19.6231 170.836 20.6293L168.066 37H160.52Z" fill="#7E00B2"/>
</svg>
